<mxfile host="app.diagrams.net" modified="2023-11-08T18:29:35.495Z" agent="Mozilla/5.0 (Windows NT 10.0; Win64; x64) AppleWebKit/537.36 (KHTML, like Gecko) Chrome/119.0.0.0 Safari/537.36" version="22.0.8" etag="TWBaH-JFFLGoNo6sJKOF" type="google">
  <diagram name="PÃ¡gina-1" id="ZTn33zj36qe2FXLs1AVD">
    <mxGraphModel>
      <root>
        <mxCell id="0" />
        <mxCell id="1" parent="0" />
      </root>
    </mxGraphModel>
  </diagram>
</mxfile>
